<svg xmlns="http://www.w3.org/2000/svg" xmlns:xlink="http://www.w3.org/1999/xlink" width="341" height="33" viewBox="0 0 341 33">
  <defs>
    <clipPath id="clip-Vector">
      <rect width="341" height="33"/>
    </clipPath>
  </defs>
  <g id="Vector" clip-path="url(#clip-Vector)">
    <g id="Group_16772" data-name="Group 16772" transform="translate(-21 -44)">
      <path id="Path_14749" data-name="Path 14749" d="M15.29,3.3h.337L26.434,1.2V1.193h.041L27.488,1l.016,0h1.914l.053.041L32.441,3.3h.1l.863.607-.863.608H31.362V5.17l.019.042-.019.042v7.953l.019.042-.019.042v3.9h4.906v4.964H22.437V17.194h4V4.513H16.216v9.932h-.532V4.513h-.4l-.863-.608Zm.337,11.449a.227.227,0,0,0-.226.226v.716a.227.227,0,0,0,.226.226h.647a.227.227,0,0,0,.226-.226v-.716a.227.227,0,0,0-.226-.226Zm.657,1.471h-.631v.189a.3.3,0,0,0,.161.252,2.483,2.483,0,0,0,.39.187.663.663,0,0,1,.161,1.091.9.9,0,0,1-1.029.1c-.3-.164-.4-.468-.44-.435-.144.115-.047.614.3.933a1.3,1.3,0,0,0,2.046-1.472c-.225-.553-.586-.581-.9-.78a.152.152,0,0,1-.057-.062m8.805,5.668-2.366-2.47v1.764l.676.705Zm3.613,0-4.234-4.421h-1.69l4.234,4.421Zm3.613,0L28.08,17.466H26.39l4.235,4.421Zm3.613,0-4.235-4.421H30l4.234,4.421Zm.054-3.716-.675-.705h-1.69l2.366,2.47Zm-8.638-.977v-3.9l-.019-.042.019-.043V5.254l-.019-.043.019-.042V4.513h-.281V17.194Zm.4,0H29.1l-1.355-3.011Zm1.861,0h1.355v-3.01ZM26.434,3.3V1.61L17.733,3.3Zm.628-1.81V3.3h1.124l.858-1.9h-1.5Zm3.9,4.659L29.71,8.924h1.25Zm0,3.179H29.615l1.345,2.988Zm-3.216,2.988L29.09,9.326H27.745Zm0-3.39H29l-1.25-2.777Zm2.883-4.411H28.078l-.315.7,1.589,3.53,1.589-3.53Zm-.766-2.678L30.52,3.3h1.26ZM30.08,3.3l-.728-1.617L28.625,3.3ZM27.855,13.451l1.5,3.328,1.5-3.328Zm3-.4-1.5-3.331-1.5,3.331Z" transform="translate(66.573 49.008)" fill-rule="evenodd"/>
      <path id="Path_14773" data-name="Path 14773" d="M6.786,385.556h2v3.636h-2Zm-1.427,4.2h4.855v2.331H5.359ZM4.9,377.817a.71.71,0,0,1,.041.108.822.822,0,0,1,.024.112.872.872,0,0,1-.176.047,1.137,1.137,0,0,1-.169.011.706.706,0,0,1-.281-.051.556.556,0,0,1-.2-.145.614.614,0,0,1-.123-.221.9.9,0,0,1-.041-.278.875.875,0,0,1,.043-.28.652.652,0,0,1,.125-.223.573.573,0,0,1,.2-.147.668.668,0,0,1,.272-.052,1.183,1.183,0,0,1,.166.011.721.721,0,0,1,.165.047.4.4,0,0,1-.022.11q-.019.054-.041.108a.839.839,0,0,0-.117-.032.67.67,0,0,0-.121-.01.339.339,0,0,0-.278.118.539.539,0,0,0-.1.35q0,.46.39.459a.674.674,0,0,0,.122-.009.792.792,0,0,0,.118-.032m.584-1.1.075-.008q.036,0,.079,0l.073,0,.079.008.424,1.354a1.092,1.092,0,0,1-.151.011.884.884,0,0,1-.139-.011L5.85,377.8H5.4l-.077.271a.827.827,0,0,1-.13.011.872.872,0,0,1-.137-.011Zm.3.855-.156-.568-.164.568Zm.575-.855c.024,0,.047-.006.069-.008l.07,0,.066,0c.023,0,.046,0,.07.008v.7c0,.076,0,.142.008.2a.434.434,0,0,0,.034.136.169.169,0,0,0,.072.079.241.241,0,0,0,.12.025.238.238,0,0,0,.119-.025.17.17,0,0,0,.071-.079.417.417,0,0,0,.034-.136c.005-.054.008-.12.008-.2v-.7c.025,0,.049-.006.072-.008l.066,0,.069,0c.023,0,.047,0,.071.008v.761a1.293,1.293,0,0,1-.023.251.493.493,0,0,1-.081.195.379.379,0,0,1-.156.126.725.725,0,0,1-.5,0,.378.378,0,0,1-.156-.126.488.488,0,0,1-.081-.195,1.293,1.293,0,0,1-.023-.251Zm1.534.234H7.558a.581.581,0,0,1-.012-.119.567.567,0,0,1,.012-.115h.951a.567.567,0,0,1,.012.115.581.581,0,0,1-.012.119H8.172v1.12l-.068.006c-.023,0-.045,0-.066,0l-.068,0a.687.687,0,0,1-.075-.007Zm.8-.234a.861.861,0,0,1,.137-.011.9.9,0,0,1,.139.011v1.354a.922.922,0,0,1-.137.011.909.909,0,0,1-.139-.011ZM9.791,378.1a.606.606,0,0,1-.264-.053.487.487,0,0,1-.183-.146.627.627,0,0,1-.106-.22A1.046,1.046,0,0,1,9.2,377.4a1.072,1.072,0,0,1,.035-.28.64.64,0,0,1,.106-.223.5.5,0,0,1,.183-.147.689.689,0,0,1,.527,0,.5.5,0,0,1,.183.147.64.64,0,0,1,.106.223,1.072,1.072,0,0,1,.035.28,1.047,1.047,0,0,1-.035.277.627.627,0,0,1-.106.22.487.487,0,0,1-.183.146.606.606,0,0,1-.264.053m0-.229q.291,0,.292-.467a.691.691,0,0,0-.071-.351.238.238,0,0,0-.219-.117q-.3,0-.3.467t.294.467m.815-1.147a.587.587,0,0,1,.111-.011.639.639,0,0,1,.117.011l.524.863v-.863a.794.794,0,0,1,.13-.011.555.555,0,0,1,.113.011v1.354a.619.619,0,0,1-.109.011.672.672,0,0,1-.115-.011l-.528-.861v.861a.69.69,0,0,1-.122.011.661.661,0,0,1-.121-.011Zm-8.6,3.329a.727.727,0,0,1,.041.108.836.836,0,0,1,.024.112.9.9,0,0,1-.176.047,1.131,1.131,0,0,1-.169.012.7.7,0,0,1-.281-.052.56.56,0,0,1-.2-.145.627.627,0,0,1-.124-.221.913.913,0,0,1-.041-.279.885.885,0,0,1,.043-.28.655.655,0,0,1,.126-.223.565.565,0,0,1,.2-.147.667.667,0,0,1,.272-.052,1.088,1.088,0,0,1,.166.011.724.724,0,0,1,.165.047.42.42,0,0,1-.023.11c-.013.035-.026.072-.041.108a.889.889,0,0,0-.117-.032.673.673,0,0,0-.121-.009.34.34,0,0,0-.278.118.541.541,0,0,0-.1.35q0,.459.39.459a.7.7,0,0,0,.122-.009.728.728,0,0,0,.118-.032m.765.279a.615.615,0,0,1-.264-.053.5.5,0,0,1-.183-.146.63.63,0,0,1-.106-.22,1.052,1.052,0,0,1-.035-.278,1.074,1.074,0,0,1,.035-.28.643.643,0,0,1,.106-.223.488.488,0,0,1,.183-.147.61.61,0,0,1,.264-.052.61.61,0,0,1,.264.052.488.488,0,0,1,.183.147.643.643,0,0,1,.106.223,1.06,1.06,0,0,1,.035.28,1.039,1.039,0,0,1-.035.278.63.63,0,0,1-.106.22.5.5,0,0,1-.183.146.615.615,0,0,1-.264.053m0-.23q.292,0,.292-.467a.69.69,0,0,0-.071-.35.239.239,0,0,0-.219-.117q-.3,0-.3.467t.294.467m.816-1.147a.556.556,0,0,1,.111-.011.611.611,0,0,1,.117.011l.523.863v-.863a.758.758,0,0,1,.13-.011.531.531,0,0,1,.113.011V380.3a.566.566,0,0,1-.109.011.618.618,0,0,1-.115-.011l-.527-.861v.861a.643.643,0,0,1-.123.011.608.608,0,0,1-.12-.011Zm1.5.727a.759.759,0,0,1-.115-.054.327.327,0,0,1-.087-.07.289.289,0,0,1-.056-.1.468.468,0,0,1,.013-.305.342.342,0,0,1,.094-.123.408.408,0,0,1,.145-.075.66.66,0,0,1,.19-.025.906.906,0,0,1,.18.017,1.364,1.364,0,0,1,.176.049.669.669,0,0,1-.06.215l-.058-.023a.438.438,0,0,0-.062-.019.679.679,0,0,0-.074-.012.856.856,0,0,0-.094,0,.359.359,0,0,0-.065.006.174.174,0,0,0-.059.021.114.114,0,0,0-.043.044.152.152,0,0,0-.017.076.127.127,0,0,0,.049.106.229.229,0,0,0,.051.03l.056.023.113.043a1.417,1.417,0,0,1,.13.058.356.356,0,0,1,.1.074.321.321,0,0,1,.063.107.465.465,0,0,1,.023.156.428.428,0,0,1-.035.175.373.373,0,0,1-.1.136.469.469,0,0,1-.163.089.712.712,0,0,1-.223.032q-.062,0-.111,0a.921.921,0,0,1-.093-.013.821.821,0,0,1-.088-.022c-.029-.009-.059-.019-.09-.032a.755.755,0,0,1,.021-.114c.01-.04.022-.079.036-.12a.977.977,0,0,0,.149.048.662.662,0,0,0,.149.016.337.337,0,0,0,.186-.045.149.149,0,0,0,.068-.134.16.16,0,0,0-.016-.076.168.168,0,0,0-.041-.051.252.252,0,0,0-.058-.035l-.066-.027Zm1.053-.493H5.806a.581.581,0,0,1-.012-.119.556.556,0,0,1,.012-.115h.951a.579.579,0,0,1,.011.115.6.6,0,0,1-.011.119H6.42V380.3l-.068.007c-.023,0-.045,0-.066,0l-.068,0c-.025,0-.05,0-.074-.008Zm.817-.233.155-.016c.049,0,.1-.006.161-.006a1.1,1.1,0,0,1,.2.019.544.544,0,0,1,.182.067.378.378,0,0,1,.131.13.4.4,0,0,1,.05.208.425.425,0,0,1-.019.133.39.39,0,0,1-.048.1.427.427,0,0,1-.063.075.523.523,0,0,1-.064.05l-.032.02.33.572-.079.008a.834.834,0,0,1-.085,0,.878.878,0,0,1-.141-.012l-.354-.629.045-.023.064-.034a.387.387,0,0,0,.073-.052.3.3,0,0,0,.059-.075.251.251,0,0,0-.043-.279.269.269,0,0,0-.175-.056.465.465,0,0,0-.075.006V380.3l-.068.007c-.022,0-.045,0-.066,0l-.067,0c-.024,0-.048,0-.073-.008Zm1.13,0a.624.624,0,0,1,.07-.008l.069,0,.066,0a.614.614,0,0,1,.069.008v.7c0,.077,0,.142.008.2a.427.427,0,0,0,.034.136.171.171,0,0,0,.072.079.248.248,0,0,0,.12.025.242.242,0,0,0,.118-.025.173.173,0,0,0,.071-.079.428.428,0,0,0,.034-.136,1.941,1.941,0,0,0,.009-.2v-.7a.677.677,0,0,1,.072-.008l.066,0,.069,0a.627.627,0,0,1,.071.008v.761a1.286,1.286,0,0,1-.023.251.5.5,0,0,1-.081.2.39.39,0,0,1-.156.125.721.721,0,0,1-.5,0,.389.389,0,0,1-.157-.125.491.491,0,0,1-.081-.2,1.285,1.285,0,0,1-.023-.251Zm2.166,1.1a.763.763,0,0,1,.041.108.788.788,0,0,1,.023.112.9.9,0,0,1-.176.047,1.127,1.127,0,0,1-.168.012.706.706,0,0,1-.281-.052.558.558,0,0,1-.2-.145.612.612,0,0,1-.123-.221.9.9,0,0,1-.041-.279.885.885,0,0,1,.043-.28.655.655,0,0,1,.125-.223.571.571,0,0,1,.2-.147.668.668,0,0,1,.272-.052,1.089,1.089,0,0,1,.167.011.721.721,0,0,1,.165.047.4.4,0,0,1-.023.11c-.013.035-.026.072-.041.108a.876.876,0,0,0-.117-.032.674.674,0,0,0-.121-.009.339.339,0,0,0-.277.118.539.539,0,0,0-.1.35q0,.459.39.459a.7.7,0,0,0,.122-.009.731.731,0,0,0,.119-.032m.533-.864h-.337a.581.581,0,0,1-.011-.119.556.556,0,0,1,.011-.115H11.4a.579.579,0,0,1,.011.115.6.6,0,0,1-.011.119h-.337V380.3l-.068.007c-.023,0-.045,0-.066,0l-.069,0c-.024,0-.049,0-.074-.008Zm.8-.233a.82.82,0,0,1,.137-.011.853.853,0,0,1,.139.011V380.3a.846.846,0,0,1-.137.011.835.835,0,0,1-.139-.011Zm1.092,1.377a.615.615,0,0,1-.264-.053.5.5,0,0,1-.183-.146.63.63,0,0,1-.106-.22,1.052,1.052,0,0,1-.035-.278,1.074,1.074,0,0,1,.035-.28.643.643,0,0,1,.106-.223.488.488,0,0,1,.183-.147.689.689,0,0,1,.527,0,.492.492,0,0,1,.183.147.648.648,0,0,1,.106.223,1.074,1.074,0,0,1,.035.28,1.052,1.052,0,0,1-.035.278.635.635,0,0,1-.106.22.5.5,0,0,1-.183.146.615.615,0,0,1-.264.053m0-.23q.292,0,.292-.467a.69.69,0,0,0-.071-.35.239.239,0,0,0-.219-.117q-.3,0-.3.467t.294.467m.816-1.147a.556.556,0,0,1,.111-.011.606.606,0,0,1,.117.011l.524.863v-.863a.755.755,0,0,1,.13-.011.535.535,0,0,1,.113.011V380.3a.571.571,0,0,1-.109.011.618.618,0,0,1-.115-.011l-.527-.861v.861a.64.64,0,0,1-.123.011.608.608,0,0,1-.12-.011ZM5.14,381.182a.949.949,0,0,1,.154-.011l.069,0a.426.426,0,0,1,.069.009l.194,1.018.234-1.018.07-.008.066,0a.734.734,0,0,1,.123.011l.243,1.045.194-1.045a.638.638,0,0,1,.121-.011.686.686,0,0,1,.073,0l.07.008-.326,1.354a.894.894,0,0,1-.142.011,1.239,1.239,0,0,1-.156-.011l-.217-.9-.234.9-.08.007a.718.718,0,0,1-.076,0,.806.806,0,0,1-.126-.011ZM7.5,382.558a.616.616,0,0,1-.264-.053.492.492,0,0,1-.183-.146.626.626,0,0,1-.106-.22,1.05,1.05,0,0,1-.035-.278,1.069,1.069,0,0,1,.035-.28.64.64,0,0,1,.106-.223.486.486,0,0,1,.183-.147.685.685,0,0,1,.527,0,.489.489,0,0,1,.183.147.646.646,0,0,1,.106.223,1.07,1.07,0,0,1,.035.28,1.05,1.05,0,0,1-.035.278.632.632,0,0,1-.106.22.5.5,0,0,1-.183.146.613.613,0,0,1-.264.053m0-.229q.292,0,.292-.467a.69.69,0,0,0-.071-.35.238.238,0,0,0-.219-.117q-.3,0-.3.467t.294.467m.829-1.147.155-.016q.073-.007.161-.007a1.085,1.085,0,0,1,.2.019.552.552,0,0,1,.182.067.376.376,0,0,1,.131.13.394.394,0,0,1,.05.208.427.427,0,0,1-.019.133.4.4,0,0,1-.111.175.47.47,0,0,1-.064.05l-.032.021.33.572-.079.007a.84.84,0,0,1-.085,0,.917.917,0,0,1-.141-.011l-.354-.629.045-.023.064-.034a.376.376,0,0,0,.073-.051.279.279,0,0,0,.059-.075.249.249,0,0,0-.043-.279.267.267,0,0,0-.175-.055.46.46,0,0,0-.075.005v1.143l-.068.006-.066,0-.068,0c-.024,0-.048,0-.073-.007Zm1.452.672.368-.672a.679.679,0,0,1,.08-.009l.067,0q.032,0,.072,0l.083.008-.371.653.4.7-.084.007c-.027,0-.051,0-.073,0l-.067,0c-.024,0-.052,0-.082-.009Zm-.314-.674c.024,0,.047-.006.07-.007l.07,0,.066,0c.023,0,.046,0,.07.007v1.358c-.024,0-.047.006-.07.008l-.068,0-.068,0c-.023,0-.046,0-.07-.008Zm-.142-11.964v5.054H1.128a1.12,1.12,0,0,0-.615.184h0c-.023.015-.045.03-.066.046h0l-.022.018h0c-.02.016-.039.032-.057.05l-.009.008c-.017.016-.033.032-.048.048l-.008.008a1.124,1.124,0,0,0-.3.763v8.46a1.131,1.131,0,0,0,1.128,1.128H9.321V389H28.89V369.216H26.865v2.791H20.117v-2.791H18.093v2.791H11.345v-2.791Zm4.065,15.256h.975l-1.425-1.6h.857l1.171,1.315a.605.605,0,0,0,.1-.328V383.2l-.292-.329h.292v-6.687h-.685l-1.247-1.4h-.975l1.247,1.4h-.857l-1.247-1.4H10.33l1.247,1.4H10.72l-1.247-1.4H8.5l1.247,1.4H8.888l-1.247-1.4H6.666l1.247,1.4H7.056l-1.247-1.4H4.878l1.247,1.4H5.268l-1.247-1.4H3.046l1.247,1.4H3.436l-1.247-1.4H1.214l1.247,1.4H1.6l-.993-1.116a.608.608,0,0,0-.1.33v.659l.114.128H.514v6.687h.509l1.425,1.6h.975L2,382.871h.857l1.425,1.6h.975l-1.425-1.6h.857l1.425,1.6h.931l-1.425-1.6h.857l1.425,1.6h.975l-1.425-1.6h.857l1.425,1.6h.975l-1.425-1.6h.857l1.425,1.6h.966l-1.425-1.6h.857ZM.514,383.262l1.077,1.21H1.128a.617.617,0,0,1-.614-.614Zm14.546-7.271-1.075-1.208h.461a.617.617,0,0,1,.614.614Zm-.556-1.72h.038l.039,0,.05.008.012,0,.045.009.008,0,.019,0,.006,0,.019.005.008,0,.021.006h0c.024.007.048.016.071.025l.007,0,.021.008h0l.022.01h0l.02.01,0,0a1.131,1.131,0,0,1,.651,1.021v4h2.52v-5.172H11.345v.047h3.1l.058,0m12.362,5.123H20.117v-5.172h6.748Z" transform="translate(200 -319.217)" fill-rule="evenodd"/>
      <path id="Path_14751" data-name="Path 14751" d="M263.546,137.838h.07v-.011l.376.011h.525l.058.017,4.862.141v.181l4.523.131c-.046-.134-.1-.266-.159-.4l1.687.408a4.288,4.288,0,0,1,.193.5l5.638,5.192-.311.6-5.126-4.554a4.408,4.408,0,0,1-.527,2.153l4.614,4.417-.369.715a2.073,2.073,0,0,0-.173,1.44l-3.717-3.068a5.058,5.058,0,0,0-2.277-3.528,4.392,4.392,0,0,0,.7-3.227l-4.693-.136v.181l-1.02-.03,2.33.683c1.122.329,2.125.957,2.125,2.125v.094a5.055,5.055,0,0,0-7.219,4.568c0,.122,0,.242.013.361h-5.518c.009-.119.013-.24.013-.361a5.055,5.055,0,0,0-9.6-2.2v-4.282a2.134,2.134,0,0,1,1.433-2.008l.627-5.884a1.094,1.094,0,0,1,1.047-1.046h7.479c.575,0,.915.486,1.046,1.046Zm16.364,9.671a1.725,1.725,0,0,0,.727,2.316,17.028,17.028,0,0,0,6.251,1.329c-2.328-2.533-3.744-4.863-2.606-8.307l-2.219.485Zm-24.8-2.911a1.852,1.852,0,1,0,1.852,1.852,1.852,1.852,0,0,0-1.852-1.852m15.6,0a1.852,1.852,0,1,0,1.852,1.852,1.852,1.852,0,0,0-1.852-1.852m-15.6-2.852a4.7,4.7,0,1,0,4.7,4.7,4.7,4.7,0,0,0-4.7-4.7m15.6,0a4.7,4.7,0,1,0,4.7,4.7,4.7,4.7,0,0,0-4.7-4.7m4.347-2.712a.54.54,0,1,0,.54.54.54.54,0,0,0-.54-.54m-.652,2.511a.54.54,0,1,0,.54.54.54.54,0,0,0-.54-.54m-13.645-9.788h-6.382a.935.935,0,0,0-.893.887l-.8,6.66a7,7,0,0,1,8.634,2.864h2.491l-2.159-9.524c-.108-.475-.4-.887-.893-.887" transform="translate(12.596 -81.025)" fill-rule="evenodd"/>
      <path id="Path_14747" data-name="Path 14747" d="M293.635,390.571l-1.1-4.19c-3.946.045-9.041-.577-12.553.99a12.255,12.255,0,0,0-3.722,2.461c-.217,4.029.974,7.342,5.128,8.9,3.959-.087,5.208-1.325,8.045-3.813Zm-30.349,7.146v1.822a.759.759,0,0,0,.757.757h2.363l1-1.192a.7.7,0,0,1,.526-.218h5.84v-8.558h-6.746c-1.634.153-2.088,1.192-2.58,2.58Zm2.24-4.462a.355.355,0,0,1,.269.369l.084,2.333c.007.177-.192.269-.369.268H264.45l.72-3.036Zm4.364-.009a.323.323,0,0,1,.322.322v2.33a.324.324,0,0,1-.322.323l-3,.023a.324.324,0,0,1-.323-.323l-.015-2.353a.322.322,0,0,1,.323-.322Zm.2,7.678a2.457,2.457,0,1,0,2.457,2.457,2.458,2.458,0,0,0-2.457-2.457m0,1.49a.967.967,0,1,1-.968.967.967.967,0,0,1,.968-.967m17.617,0a.967.967,0,1,0,.967.967.967.967,0,0,0-.967-.967m0-1.49a2.457,2.457,0,1,1-2.457,2.457,2.457,2.457,0,0,1,2.457-2.457m5.349-1.091a.424.424,0,0,1,.448.39v2.785a.424.424,0,0,1-.448.39h-2.369v-.017a2.98,2.98,0,0,0-5.96,0v.017H273.071v-.017a2.98,2.98,0,0,0-5.961,0v.017h-3.092a.424.424,0,0,1-.449-.39v-1.849a1.67,1.67,0,0,0,.473.068h2.8l1.172-1.393Zm-.6-7.683h.794v6.622H287.93c2.673-.9,4.853-2.923,4.528-6.622m-16.82-1.371c-.325,3.7,1.854,7.088,4.528,7.992h-5.323v-7.992Z" transform="translate(-127.286 -336.297)" fill-rule="evenodd"/>
      <path id="Path_14770" data-name="Path 14770" d="M155.112,388.424h-.041a2.4,2.4,0,0,1-1.019-.119c-.262-.111-.389-.369-.75-.717-.307-.3-.858-.6-.992-.918a5.569,5.569,0,0,1-.194-1.389c-.285.157-.589-.658-.65-.925-.089-.394-.373-1.065-.462-1.515a1.272,1.272,0,0,1-.024-.2,13.46,13.46,0,0,0,8.139,0,1.274,1.274,0,0,1-.024.2c-.088.45-.373,1.121-.462,1.515-.06.264-.358,1.064-.64.93a5.274,5.274,0,0,1-.187,1.354c-.134.324-.68.629-.985.927-.359.352-.485.609-.746.725a2.25,2.25,0,0,1-.962.131m2.81,1.108c2.678,1.819,6.246,1.015,6.585,4.645.007.074.012,3.406.015,4.5H155.88Zm-6.721-8.391c-.311,0-.566.123-.566.471,0,1.6,8.836,1.588,8.836,0,0-.348-.255-.471-.566-.471Zm3.852-4.876c2.258,0,4.1,2.194,4.179,4.45a1.326,1.326,0,0,0-.327-.039h-7.7a1.331,1.331,0,0,0-.327.039c.082-2.256,1.922-4.45,4.179-4.45m1.227.49a5.519,5.519,0,0,0-2.455,0l.919,2.754h.616Zm-1.159,13.2-.14,0-.747,1.1.019.281.618.628-.693,1.115.261,5.594H155.7l.233-5.589-.693-1.115.618-.628.019-.281Zm-2.941-.427,2.043,9.145h-8.643c0-1.094.008-4.426.015-4.5.339-3.63,3.908-2.825,6.585-4.645" transform="translate(-117.582 -326.264)" fill-rule="evenodd"/>
      <g id="Group_16350" data-name="Group 16350" transform="translate(-6233.13 -16621.072)">
        <path id="Path_14774" data-name="Path 14774" d="M182.8,129.159h7.206a.321.321,0,0,1,.32.32v3.112a.321.321,0,0,1-.32.32H182.8a.321.321,0,0,1-.32-.32v-3.112a.321.321,0,0,1,.32-.32" transform="translate(6397.067 16541.914)" fill-rule="evenodd"/>
        <path id="Path_14775" data-name="Path 14775" d="M182.8,151.153h7.206a.321.321,0,0,1,.32.32v3.112a.321.321,0,0,1-.32.32H182.8a.321.321,0,0,1-.32-.32v-3.112a.321.321,0,0,1,.32-.32" transform="translate(6397.067 16528.107)" fill-rule="evenodd"/>
        <path id="Path_14776" data-name="Path 14776" d="M182.8,173.148h7.206a.321.321,0,0,1,.32.32v3.112a.321.321,0,0,1-.32.32H182.8a.321.321,0,0,1-.32-.32v-3.112a.321.321,0,0,1,.32-.32" transform="translate(6397.067 16514.299)" fill-rule="evenodd"/>
        <path id="Path_14753" data-name="Path 14753" d="M149.805,162.151h7.206a.321.321,0,0,1,.32.32v3.112a.321.321,0,0,1-.32.32h-7.206a.321.321,0,0,1-.32-.32v-3.112a.321.321,0,0,1,.32-.32" transform="translate(6417.739 16521.203)" fill-rule="evenodd"/>
        <path id="Path_14754" data-name="Path 14754" d="M171.8,162.151h7.206a.321.321,0,0,1,.32.32v3.112a.321.321,0,0,1-.32.32H171.8a.321.321,0,0,1-.32-.32v-3.112a.321.321,0,0,1,.32-.32" transform="translate(6403.932 16521.203)" fill-rule="evenodd"/>
        <path id="Path_14755" data-name="Path 14755" d="M138.809,129.159h7.206a.321.321,0,0,1,.32.32v3.112a.321.321,0,0,1-.32.32h-7.206a.321.321,0,0,1-.32-.32v-3.112a.321.321,0,0,1,.32-.32" transform="translate(6424.642 16541.914)" fill-rule="evenodd"/>
        <path id="Path_14756" data-name="Path 14756" d="M138.809,151.153h7.206a.321.321,0,0,1,.32.32v3.112a.321.321,0,0,1-.32.32h-7.206a.321.321,0,0,1-.32-.32v-3.112a.321.321,0,0,1,.32-.32" transform="translate(6424.642 16528.107)" fill-rule="evenodd"/>
        <path id="Path_14757" data-name="Path 14757" d="M138.809,173.148h7.206a.321.321,0,0,1,.32.32v3.112a.321.321,0,0,1-.32.32h-7.206a.321.321,0,0,1-.32-.32v-3.112a.321.321,0,0,1,.32-.32" transform="translate(6424.642 16514.301)" fill-rule="evenodd"/>
        <path id="Path_14758" data-name="Path 14758" d="M160.8,129.159h7.206a.321.321,0,0,1,.32.32v3.112a.321.321,0,0,1-.32.32H160.8a.321.321,0,0,1-.32-.32v-3.112a.321.321,0,0,1,.32-.32" transform="translate(6410.834 16541.914)" fill-rule="evenodd"/>
        <path id="Path_14759" data-name="Path 14759" d="M160.8,151.153h7.206a.321.321,0,0,1,.32.32v3.112a.321.321,0,0,1-.32.32H160.8a.321.321,0,0,1-.32-.32v-3.112a.321.321,0,0,1,.32-.32" transform="translate(6410.834 16528.107)" fill-rule="evenodd"/>
        <path id="Path_14760" data-name="Path 14760" d="M160.8,173.148h7.206a.321.321,0,0,1,.32.32v3.112a.321.321,0,0,1-.32.32H160.8a.321.321,0,0,1-.32-.32v-3.112a.321.321,0,0,1,.32-.32" transform="translate(6410.834 16514.301)" fill-rule="evenodd"/>
        <path id="Path_14764" data-name="Path 14764" d="M149.806,140.156h7.206a.321.321,0,0,1,.321.32v3.112a.321.321,0,0,1-.321.32h-7.206a.321.321,0,0,1-.32-.32v-3.112a.321.321,0,0,1,.32-.32" transform="translate(6417.738 16535.012)" fill-rule="evenodd"/>
        <path id="Path_14765" data-name="Path 14765" d="M171.8,140.156h7.206a.321.321,0,0,1,.32.32v3.112a.321.321,0,0,1-.32.32H171.8a.321.321,0,0,1-.32-.32v-3.112a.321.321,0,0,1,.32-.32" transform="translate(6403.931 16535.012)" fill-rule="evenodd"/>
      </g>
    </g>
  </g>
</svg>
